<svg width="21" height="24" viewBox="0 0 21 24" fill="none" xmlns="http://www.w3.org/2000/svg">
<path d="M10.5 23.2798C9.70435 23.2798 8.94129 22.9764 8.37868 22.4363C7.81607 21.8962 7.5 21.1636 7.5 20.3998H13.5C13.5 21.1636 13.1839 21.8962 12.6213 22.4363C12.0587 22.9764 11.2956 23.2798 10.5 23.2798ZM21 18.9598H0C2.217 17.5419 3 10.5416 3 8.87981C2.99998 7.21905 3.598 5.60934 4.69275 4.32341C5.7875 3.03749 7.31166 2.15441 9.007 1.82381C8.98606 1.62358 9.00908 1.42137 9.07455 1.2302C9.14003 1.03904 9.24651 0.863171 9.38713 0.713942C9.52776 0.564712 9.6994 0.445434 9.891 0.363801C10.0826 0.282167 10.2899 0.23999 10.4995 0.23999C10.7091 0.23999 10.9164 0.282167 11.108 0.363801C11.2996 0.445434 11.4712 0.564712 11.6119 0.713942C11.7525 0.863171 11.859 1.03904 11.9244 1.2302C11.9899 1.42137 12.0129 1.62358 11.992 1.82381C13.686 2.15723 15.2084 3.04105 16.3028 4.32633C17.3972 5.61161 17.9966 7.21977 18 8.87981C18 10.5396 18.782 17.5352 21 18.9598Z" fill="#0065C0"/>
</svg>
