<svg width="17" height="17" viewBox="0 0 17 17" fill="none" xmlns="http://www.w3.org/2000/svg">
<path d="M1.8125 16.8746C1.36495 16.8746 0.935725 16.6968 0.619257 16.3803C0.30279 16.0638 0.125 15.6346 0.125 15.1871L0.125 2.81207C0.125199 2.36465 0.303076 1.93562 0.619522 1.61931C0.935969 1.30301 1.36508 1.12532 1.8125 1.12532H9.125C9.27418 1.12532 9.41726 1.18458 9.52275 1.29007C9.62824 1.39556 9.6875 1.53864 9.6875 1.68782C9.6875 1.837 9.62824 1.98008 9.52275 2.08557C9.41726 2.19106 9.27418 2.25032 9.125 2.25032H1.8125C1.66345 2.25032 1.52049 2.30948 1.41502 2.41481C1.30955 2.52013 1.2502 2.66302 1.25 2.81207V15.1871C1.2499 15.261 1.26438 15.3342 1.2926 15.4026C1.32083 15.4709 1.36224 15.533 1.41449 15.5853C1.46673 15.6376 1.52877 15.6791 1.59707 15.7074C1.66536 15.7357 1.73857 15.7503 1.8125 15.7503H14.1875C14.2614 15.7503 14.3346 15.7357 14.4029 15.7074C14.4712 15.6791 14.5333 15.6376 14.5855 15.5853C14.6378 15.533 14.6792 15.4709 14.7074 15.4026C14.7356 15.3342 14.7501 15.261 14.75 15.1871V8.43707C14.75 8.28789 14.8093 8.14481 14.9148 8.03932C15.0202 7.93383 15.1633 7.87457 15.3125 7.87457C15.4617 7.87457 15.6048 7.93383 15.7102 8.03932C15.8157 8.14481 15.875 8.28789 15.875 8.43707V15.1871C15.875 15.6346 15.6972 16.0638 15.3807 16.3803C15.0643 16.6968 14.6351 16.8746 14.1875 16.8746H1.8125ZM3.5825 13.5843C3.54576 13.5474 3.51995 13.501 3.50791 13.4503C3.49586 13.3996 3.49806 13.3466 3.51425 13.2971L4.42025 10.5821C4.44813 10.499 4.49485 10.4236 4.55675 10.3616L12.2218 2.69657L14.4718 4.94657L6.806 12.6123C6.74389 12.6737 6.66843 12.7199 6.5855 12.7473L3.86975 13.6533C3.8412 13.6628 3.81132 13.6676 3.78125 13.6676C3.74431 13.6677 3.70772 13.6604 3.6736 13.6463C3.63948 13.6321 3.60852 13.6113 3.5825 13.5851V13.5843ZM15.266 4.15007L13.016 1.90007L14.189 0.72707C14.2946 0.621686 14.4377 0.5625 14.5869 0.5625C14.7361 0.5625 14.8792 0.621686 14.9847 0.72707L16.439 2.18207C16.5438 2.28783 16.6026 2.43069 16.6026 2.57957C16.6026 2.72845 16.5438 2.87131 16.439 2.97707L15.2667 4.15007H15.266Z" fill="#808080"/>
</svg>
