<svg width="24" height="17" viewBox="0 0 24 17" fill="none" xmlns="http://www.w3.org/2000/svg">
<path d="M12.0008 12.75C13.1841 12.75 14.1883 12.3375 15.0133 11.5125C15.8383 10.6875 16.2508 9.68332 16.2508 8.49999C16.2508 7.31665 15.8383 6.31249 15.0133 5.48749C14.1883 4.66249 13.1841 4.24999 12.0008 4.24999C10.8174 4.24999 9.81328 4.66249 8.98828 5.48749C8.16328 6.31249 7.75078 7.31665 7.75078 8.49999C7.75078 9.68332 8.16328 10.6875 8.98828 11.5125C9.81328 12.3375 10.8174 12.75 12.0008 12.75ZM12.0008 10.9C11.3341 10.9 10.7674 10.6667 10.3008 10.2C9.83412 9.73332 9.60078 9.16665 9.60078 8.49999C9.60078 7.83332 9.83412 7.26665 10.3008 6.79999C10.7674 6.33332 11.3341 6.09999 12.0008 6.09999C12.6674 6.09999 13.2341 6.33332 13.7008 6.79999C14.1674 7.26665 14.4008 7.83332 14.4008 8.49999C14.4008 9.16665 14.1674 9.73332 13.7008 10.2C13.2341 10.6667 12.6674 10.9 12.0008 10.9ZM12.0008 16.575C9.43411 16.575 7.11745 15.825 5.05078 14.325C2.98411 12.825 1.44245 10.8833 0.425781 8.49999C1.44245 6.11665 2.98411 4.17499 5.05078 2.67499C7.11745 1.17499 9.43411 0.424988 12.0008 0.424988C14.5674 0.424988 16.8841 1.17499 18.9508 2.67499C21.0174 4.17499 22.5591 6.11665 23.5758 8.49999C22.5591 10.8833 21.0174 12.825 18.9508 14.325C16.8841 15.825 14.5674 16.575 12.0008 16.575ZM12.0008 14.5C14.0008 14.5 15.8424 13.9542 17.5258 12.8625C19.2091 11.7708 20.4924 10.3167 21.3758 8.49999C20.4924 6.68332 19.2133 5.22915 17.5383 4.13749C15.8633 3.04582 14.0174 2.49999 12.0008 2.49999C10.0008 2.49999 8.15911 3.04582 6.47578 4.13749C4.79245 5.22915 3.50078 6.68332 2.60078 8.49999C3.50078 10.3167 4.78828 11.7708 6.46328 12.8625C8.13828 13.9542 9.98411 14.5 12.0008 14.5Z" fill="black"/>
</svg>
