<svg width="47" height="29" viewBox="0 0 47 29" fill="none" xmlns="http://www.w3.org/2000/svg">
<ellipse rx="0.143382" ry="0.669118" transform="matrix(-1 0 0 1 31.9738 24.0336)" fill="#D9D9D9"/>
<rect width="9.72269" height="7.29202" transform="matrix(1 8.74228e-08 8.74228e-08 -1 1.2168 10.938)" fill="#EDB075"/>
<rect width="8.50735" height="7.29202" transform="matrix(-1 0 0 1 20.6611 12.1533)" fill="#EDB075"/>
<rect width="8.50735" height="7.29202" transform="matrix(-1 0 0 1 30.3848 12.1533)" fill="#EDB075"/>
<rect width="4.86134" height="7.29202" transform="matrix(1 8.74228e-08 8.74228e-08 -1 6.07812 19.4453)" fill="#EDB075"/>
<rect width="3.64601" height="7.29202" transform="matrix(1 8.74228e-08 8.74228e-08 -1 1.2168 19.4454)" fill="#EDB075"/>
<rect width="3.64601" height="7.29202" transform="matrix(1 8.74228e-08 8.74228e-08 -1 26.7383 10.938)" fill="#EDB075"/>
<rect width="3.64601" height="7.29202" transform="matrix(1 8.74228e-08 8.74228e-08 -1 21.877 10.938)" fill="#EDB075"/>
<rect width="1.21534" height="2.43067" transform="matrix(1 8.74228e-08 8.74228e-08 -1 25.5225 14.584)" fill="#434645"/>
<rect width="1.21534" height="2.43067" transform="matrix(1 8.74228e-08 8.74228e-08 -1 2.43066 6.07669)" fill="#434645"/>
<rect width="1.21534" height="2.43067" transform="matrix(-4.37114e-08 1 1 4.37114e-08 14.583 12.1533)" fill="#434645"/>
<rect width="8.50735" height="10.938" transform="matrix(-1 0 0 1 20.6611 0)" fill="#EDB075"/>
<path d="M31.4489 7.68805H40.7688L46.6475 16.53V22.3608H31.4489V7.68805Z" fill="#0065C0"/>
<path d="M34.4609 9.2652H40.3874L45.0234 16.4343H34.4609V9.2652Z" fill="#F9F9FB"/>
<path opacity="0.1" d="M34.4609 9.2652L39.3837 10.1255L45.0234 16.4343H34.4609V9.2652Z" fill="#0065C0"/>
<rect width="46.6471" height="4.33875" transform="matrix(-1 0 0 1 46.6475 20.6607)" fill="#606060"/>
<circle r="3.91912" transform="matrix(-1 0 0 1 35.9832 24.2332)" fill="#434645"/>
<circle r="1.81618" transform="matrix(-1 0 0 1 35.9817 23.9244)" fill="#D9D9D9"/>
<circle r="3.91912" transform="matrix(-1 0 0 1 7.26448 24.2332)" fill="#434645"/>
<circle r="1.81618" transform="matrix(-1 0 0 1 7.26488 23.9244)" fill="#D9D9D9"/>
<rect width="5.35294" height="0.955882" rx="0.477941" transform="matrix(-1 0 0 1 39.7656 17.0556)" fill="#F9F9FB"/>
</svg>
