<svg width="128" height="128" viewBox="0 0 128 128" fill="none" xmlns="http://www.w3.org/2000/svg">
<g clip-path="url(#clip0_1_7)">
<path d="M124 0.5H4C2.067 0.5 0.5 2.067 0.5 4V124C0.5 125.933 2.067 127.5 4 127.5H124C125.933 127.5 127.5 125.933 127.5 124V4C127.5 2.067 125.933 0.5 124 0.5Z" fill="#F3F3F3" stroke="#CCCCCC"/>
<path d="M64.3001 75.15C66.7001 75.15 68.7167 74.3333 70.35 72.7C71.9834 71.0667 72.8001 69.0333 72.8001 66.6C72.8001 64.2 71.9834 62.1917 70.35 60.575C68.7167 58.9583 66.7001 58.15 64.3001 58.15C61.8667 58.15 59.8416 58.9583 58.225 60.575C56.6083 62.1917 55.8 64.2 55.8 66.6C55.8 69.0333 56.6083 71.0667 58.225 72.7C59.8416 74.3333 61.8667 75.15 64.3001 75.15ZM64.3001 72.15C62.7001 72.15 61.3834 71.625 60.35 70.575C59.3167 69.525 58.8 68.2 58.8 66.6C58.8 65.0333 59.3167 63.7333 60.35 62.7C61.3834 61.6667 62.7001 61.15 64.3001 61.15C65.8667 61.15 67.175 61.6667 68.225 62.7C69.275 63.7333 69.8001 65.0333 69.8001 66.6C69.8001 68.2 69.275 69.525 68.225 70.575C67.175 71.625 65.8667 72.15 64.3001 72.15ZM47.4 82.75C46.5 82.75 45.7083 82.4083 45.025 81.725C44.3417 81.0417 44 80.25 44 79.35V53.9C44 53 44.3417 52.2083 45.025 51.525C45.7083 50.8417 46.5 50.5 47.4 50.5H54.6L58.35 46H70.2501L74.0001 50.5H81.2001C82.1001 50.5 82.8917 50.8417 83.5751 51.525C84.2584 52.2083 84.5999 53 84.5999 53.9V79.35C84.5999 80.25 84.2584 81.0417 83.5751 81.725C82.8917 82.4083 82.1001 82.75 81.2001 82.75H47.4ZM81.2001 79.35V53.9H72.4501L68.6501 49.45H59.95L56.1501 53.9H47.4V79.35H81.2001Z" fill="#9F9F9F"/>
</g>
<defs>
<clipPath id="clip0_1_7">
<rect width="128" height="128" fill="white"/>
</clipPath>
</defs>
</svg>
