<svg width="16" height="16" viewBox="0 0 16 16" fill="none" xmlns="http://www.w3.org/2000/svg">
<path d="M2.34321 13.6574C0.842877 12.1571 0 10.1222 0 8.00039C0 5.8786 0.842877 3.84372 2.34321 2.34339C3.84354 0.84306 5.87842 0.000183105 8.00021 0.000183105C10.122 0.000183105 12.1569 0.84306 13.6572 2.34339C15.1575 3.84372 16.0004 5.8786 16.0004 8.00039C16.0004 10.1222 15.1575 12.1571 13.6572 13.6574C12.1569 15.1577 10.122 16.0006 8.00021 16.0006C5.87842 16.0006 3.84354 15.1577 2.34321 13.6574ZM0.999873 8.00006C0.999873 9.38453 1.41042 10.7379 2.17959 11.889C2.94876 13.0402 4.04201 13.9374 5.32109 14.4672C6.60017 14.997 8.00764 15.1357 9.36551 14.8656C10.7234 14.5955 11.9707 13.9288 12.9496 12.9498C13.9286 11.9708 14.5953 10.7236 14.8654 9.36569C15.1355 8.00782 14.9968 6.60035 14.467 5.32127C13.9372 4.04219 13.04 2.94894 11.8889 2.17977C10.7377 1.4106 9.38434 1.00006 7.99987 1.00006C6.14401 1.00217 4.36476 1.74035 3.05246 3.05265C1.74017 4.36494 1.00199 6.14419 0.999873 8.00006ZM6.66654 12.3281C6.57265 12.1711 6.51427 11.9954 6.4955 11.8134C6.47673 11.6315 6.49802 11.4476 6.55787 11.2747L7.29587 7.80806C7.36254 7.50939 7.29587 7.40806 7.00787 7.34139L6.55787 7.25806L6.63921 6.87806L8.92921 6.59139L7.92921 11.2961C7.90525 11.3672 7.89707 11.4427 7.90524 11.5173C7.91342 11.5919 7.93775 11.6638 7.97654 11.7281C8.00865 11.7634 8.04841 11.7909 8.09279 11.8084C8.13716 11.826 8.18497 11.8332 8.23254 11.8294C8.48258 11.8269 8.72449 11.7403 8.91921 11.5834L8.83121 11.9994C8.63823 12.191 8.40934 12.3426 8.15767 12.4455C7.90599 12.5485 7.63646 12.6008 7.36454 12.5994C7.23521 12.6104 7.10508 12.5916 6.9841 12.5446C6.86313 12.4976 6.7545 12.4235 6.66654 12.3281ZM6.99987 4.50006C6.99987 4.30227 7.05852 4.10893 7.1684 3.94449C7.27828 3.78004 7.43446 3.65186 7.61719 3.57618C7.79992 3.50049 8.00098 3.48069 8.19496 3.51927C8.38894 3.55786 8.56713 3.6531 8.70698 3.79295C8.84683 3.9328 8.94207 4.11098 8.98066 4.30497C9.01924 4.49895 8.99944 4.70001 8.92375 4.88274C8.84807 5.06547 8.71989 5.22164 8.55544 5.33153C8.39099 5.44141 8.19765 5.50006 7.99987 5.50006C7.73466 5.50006 7.4803 5.3947 7.29277 5.20716C7.10523 5.01963 6.99987 4.76527 6.99987 4.50006Z" fill="#FF0000"/>
</svg>
