<svg id="Layer_1" data-name="Layer 1" xmlns="http://www.w3.org/2000/svg" xmlns:xlink="http://www.w3.org/1999/xlink" viewBox="0 0 125 45.32"><defs><style>.cls-1{fill:none;}.cls-2,.cls-3{fill:#0066b3;}.cls-2{fill-rule:evenodd;}.cls-4{fill:#fff200;}.cls-5{clip-path:url(#clip-path);}</style><clipPath id="clip-path"><path class="cls-1" d="M92.81,8.37a8.76,8.76,0,1,0,8.76,8.76,8.76,8.76,0,0,0-8.76-8.76"/></clipPath></defs><path class="cls-2" d="M81.2,39C62.44,48,35.3,44.78,23.74,28.82,36.62,40.33,60.29,41.51,76.45,33l-1.69-2.09A44.34,44.34,0,0,0,88.3,28.63a34.83,34.83,0,0,0-5.37,12.72L81.2,39"/><path class="cls-2" d="M125,8.4h-5.37l-2.09,7.09c0,.17-.76,2.76-.79,3,0-.29-.72-2.85-.75-3L113.82,8.4H108.3l-2.2,7.12c0,.17-.76,2.75-.79,3.05,0-.3-.75-2.91-.78-3.08L102.47,8.4h-5.9L102,24h5.84l2.35-7.43s.58-1.48.58-1.51.55,1.48.55,1.51L113.7,24h5.78Z"/><path class="cls-2" d="M86.88,24V1.67H80.4v9.87s.09,2.58.09,2.61S79.21,12,79.21,11.94L72.27,1.67h-7V24h6.42V11.16s1.25,2,1.25,2.06l7,10.8Z"/><polygon class="cls-2" points="0 23.73 15.22 23.73 15.22 18.94 5.96 18.94 5.96 1.69 0 1.69 0 23.73"/><path class="cls-3" d="M37.79,19.59c-.74,0-1.31-.36-1.31-1.13,0-1.22,1.25-2,4.11-2.06v2.27a3.9,3.9,0,0,1-2.8.92M35.29,24a6.34,6.34,0,0,0,5.3-2.56A7.53,7.53,0,0,0,41,23.73h5.84a10.72,10.72,0,0,1-.45-3.87V14.17c0-4.5-1.88-6.7-6.58-6.7-4.29,0-6.79,1.46-8.25,2.77l2.41,3.33a8.69,8.69,0,0,1,4.91-1.72c1.37,0,1.76.56,1.76,1.34v.21c-6.55.29-9.86,2.47-9.86,6A4.3,4.3,0,0,0,35.29,24Z"/><path class="cls-3" d="M55.35,19.59c-2,0-2.41-1.73-2.41-3.69,0-2.27.59-3.61,2.35-3.61a3.27,3.27,0,0,1,2.44,1v5.12a3.68,3.68,0,0,1-2.38,1.16M53,24a5.39,5.39,0,0,0,4.73-2.62,6.23,6.23,0,0,0,.36,2.38h6a9.94,9.94,0,0,1-.48-3.87V1.69h-5.9v8a5.09,5.09,0,0,0-4.67-2.2c-3.64,0-6,3-6,8.46S49.39,24,53,24Z"/><path class="cls-4" d="M92.81,8.37a8.76,8.76,0,1,0,8.76,8.76,8.76,8.76,0,0,0-8.76-8.76"/><g class="cls-5"><path class="cls-3" d="M92.81,25.93c-2.55,0-4.62-3.95-4.62-8.8s2.07-8.81,4.62-8.81,4.63,3.95,4.63,8.81S95.36,25.93,92.81,25.93Zm0-17.52c-2.5,0-4.53,3.91-4.53,8.72s2,8.71,4.53,8.71,4.54-3.91,4.54-8.71S95.31,8.41,92.81,8.41Z"/><path class="cls-3" d="M101.62,22.18h-.09c0-1.06-3.91-1.92-8.72-1.92s-8.71.86-8.71,1.92H84c0-1.13,3.87-2,8.8-2S101.62,21.05,101.62,22.18Z"/><rect class="cls-3" x="83.36" y="17.08" width="18.92" height="0.09"/><path class="cls-3" d="M92.81,14.08c-4.93,0-8.8-.88-8.8-2h.09C84.1,13.13,88,14,92.81,14s8.72-.86,8.72-1.92h.09C101.62,13.2,97.75,14.08,92.81,14.08Z"/><path class="cls-3" d="M92.81,11C88,11,84,9.38,84,7.39h.09c0,1.94,3.91,3.52,8.71,3.52s8.72-1.58,8.72-3.52h.09C101.62,9.38,97.67,11,92.81,11Z"/><rect class="cls-3" x="92.77" y="7.67" width="0.09" height="18.92"/><path class="cls-3" d="M92.81,23.25c4.86,0,8.81,1.62,8.81,3.61h-.09c0-1.94-3.91-3.52-8.72-3.52s-8.71,1.58-8.71,3.52H84C84,24.87,88,23.25,92.81,23.25Z"/></g><path class="cls-3" d="M92.81,25.93a8.81,8.81,0,1,1,8.81-8.8A8.81,8.81,0,0,1,92.81,25.93Zm0-17.52a8.72,8.72,0,1,0,8.72,8.72A8.73,8.73,0,0,0,92.81,8.41Z"/><polygon class="cls-3" points="12.33 23.71 12.33 11.22 21.81 8.53 31.29 11.22 31.29 23.71 21.81 26.39 12.33 23.71"/><polygon class="cls-3" points="12.42 11.28 21.81 8.62 31.2 11.28 21.81 13.94 12.42 11.28"/><polygon class="cls-4" points="12.73 11.28 21.81 8.71 30.89 11.28 21.81 13.86 12.73 11.28"/><polygon class="cls-3" points="21.81 26.3 31.2 23.65 31.2 11.28 21.81 13.94 21.81 26.3"/><polygon class="cls-4" points="21.89 14 31.12 11.39 31.12 23.58 21.89 26.19 21.89 14"/><polygon class="cls-3" points="12.42 11.28 21.81 13.94 21.81 26.3 12.42 23.65 12.42 11.28"/><polygon class="cls-4" points="12.5 23.58 12.5 11.39 21.72 14 21.72 26.19 12.5 23.58"/></svg>