<svg width="17" height="15" viewBox="0 0 17 15" fill="none" xmlns="http://www.w3.org/2000/svg">
<path d="M1.96175 5.59176C2.1551 4.66448 2.97242 4 3.91964 4H13.0804C14.0276 4 14.8449 4.66447 15.0383 5.59175L16.4978 12.5918C16.7568 13.8338 15.8087 15 14.54 15H2.46004C1.19127 15 0.243167 13.8338 0.502153 12.5918L1.96175 5.59176Z" fill="#9F9F9F"/>
<path fill-rule="evenodd" clip-rule="evenodd" d="M9 6C11.2091 6 13 4.65685 13 3C13 1.34315 11.2091 0 9 0C6.79086 0 5 1.34315 5 3C5 4.65685 6.79086 6 9 6ZM9 5C10.1046 5 11 4.10457 11 3C11 1.89543 10.1046 1 9 1C7.89543 1 7 1.89543 7 3C7 4.10457 7.89543 5 9 5Z" fill="#9F9F9F"/>
<path d="M7.40119 11.965L5.81547 9.7972V11.965H4.6665V7.05594H5.81547V9.20979L7.38775 7.05594H8.73829L6.91069 9.46154L8.80548 11.965H7.40119Z" fill="white"/>
<path d="M12.4826 8.60839C12.3975 8.44522 12.2743 8.32168 12.1131 8.23776C11.9563 8.14918 11.7704 8.10489 11.5554 8.10489C11.1836 8.10489 10.8857 8.2331 10.6617 8.48951C10.4378 8.74126 10.3258 9.07925 10.3258 9.5035C10.3258 9.95571 10.4423 10.31 10.6752 10.5664C10.9126 10.8182 11.2373 10.9441 11.6495 10.9441C11.9317 10.9441 12.1691 10.8695 12.3617 10.7203C12.5588 10.5711 12.7021 10.3566 12.7917 10.0769H11.3337V9.1958H13.8332V10.3077C13.7481 10.6061 13.6025 10.8834 13.3964 11.1399C13.1949 11.3963 12.9373 11.6037 12.6237 11.7622C12.3102 11.9207 11.9563 12 11.5621 12C11.0962 12 10.6797 11.8951 10.3124 11.6853C9.94952 11.4709 9.66508 11.1748 9.45902 10.7972C9.25745 10.4196 9.15666 9.98834 9.15666 9.5035C9.15666 9.01865 9.25745 8.58741 9.45902 8.20979C9.66508 7.82751 9.94952 7.53147 10.3124 7.32168C10.6752 7.10723 11.0895 7 11.5554 7C12.1198 7 12.5946 7.14219 12.9798 7.42657C13.3696 7.71096 13.6271 8.1049 13.7525 8.60839H12.4826Z" fill="white"/>
</svg>
