<svg id="Layer_1" data-name="Layer 1" xmlns="http://www.w3.org/2000/svg" xmlns:xlink="http://www.w3.org/1999/xlink" viewBox="0 0 337 541"><defs><style>.cls-1{fill:none;}.cls-2{fill:#f3f3f3;isolation:isolate;opacity:0.45;}.cls-3,.cls-5,.cls-6{fill:#fff;}.cls-3,.cls-6{stroke:#0065c0;}.cls-3{stroke-width:4px;}.cls-4{fill:#0065c0;}.cls-7{fill:#e8ebff;}.cls-8,.cls-9{fill:#005ca8;}.cls-8{fill-rule:evenodd;}.cls-10{fill:#ffec00;}.cls-11{clip-path:url(#clip-path);}</style><clipPath id="clip-path"><path class="cls-1" d="M192.3,71a10.43,10.43,0,1,0,10.43,10.43A10.43,10.43,0,0,0,192.3,71"/></clipPath></defs><rect class="cls-2" width="337" height="541" rx="12"/><rect class="cls-3" x="83.74" y="156.84" width="136" height="206.91" rx="17.49"/><path class="cls-4" d="M81.8,174.33a19.43,19.43,0,0,1,19.43-19.43h101a19.43,19.43,0,0,1,19.43,19.43V185H81.8Z"/><path class="cls-4" d="M221.69,366.67a19.43,19.43,0,0,1-19.43,19.43h-101A19.43,19.43,0,0,1,81.8,366.67V352.1H221.69Z"/><circle class="cls-5" cx="151.74" cy="369.58" r="10.69"/><rect class="cls-5" x="129.4" y="162.67" width="44.69" height="13.6" rx="4.86"/><rect class="cls-6" x="107.24" y="228.68" width="147.96" height="63.75" rx="3.4"/><path class="cls-4" d="M127.81,301.49l9.35-9.35H116.5Z"/><rect class="cls-7" x="115.8" y="238.44" width="94.23" height="10.69" rx="3.89"/><rect class="cls-7" x="116.77" y="254.96" width="125.31" height="20.4" rx="3.89"/><path class="cls-8" d="M178.47,107.5c-22.33,10.66-54.65,6.85-68.41-12.16,15.34,13.7,43.52,15.12,62.76,4.92l-2-2.48a53,53,0,0,0,16.13-2.66,41.09,41.09,0,0,0-6.39,15.14l-2.07-2.76"/><path class="cls-8" d="M230.62,71h-6.4l-2.48,8.43c0,.21-.9,3.29-.94,3.63,0-.34-.86-3.39-.9-3.59L217.31,71h-6.57l-2.62,8.47c0,.2-.9,3.28-.94,3.63,0-.35-.9-3.46-.93-3.67L203.79,71h-7l6.5,18.6h6.94l2.8-8.85s.7-1.77.7-1.8.65,1.76.65,1.8l2.8,8.85h6.88Z"/><path class="cls-8" d="M185.23,89.64V63h-7.71V74.77s.11,3.08.11,3.11-1.52-2.59-1.52-2.62L167.84,63h-8.33V89.64h7.64V74.32s1.49,2.42,1.49,2.46l8.3,12.86Z"/><polygon class="cls-8" points="81.8 89.29 99.92 89.29 99.92 83.58 88.89 83.58 88.89 63.05 81.8 63.05 81.8 89.29"/><path class="cls-9" d="M126.79,84.36c-.88,0-1.56-.43-1.56-1.35,0-1.45,1.49-2.34,4.9-2.45v2.7a4.62,4.62,0,0,1-3.34,1.1m-3,5.21a7.56,7.56,0,0,0,6.32-3,9,9,0,0,0,.42,2.77h6.95a12.92,12.92,0,0,1-.53-4.61V77.91c0-5.36-2.23-8-7.84-8-5.1,0-8.08,1.73-9.82,3.29l2.87,4A10.32,10.32,0,0,1,128,75.14c1.63,0,2.1.67,2.1,1.6V77c-7.81.36-11.74,3-11.74,7.2A5.11,5.11,0,0,0,123.81,89.57Z"/><path class="cls-9" d="M147.7,84.36c-2.34,0-2.87-2.06-2.87-4.4,0-2.69.71-4.29,2.8-4.29a3.9,3.9,0,0,1,2.9,1.21V83a4.39,4.39,0,0,1-2.83,1.38m-2.8,5.21a6.42,6.42,0,0,0,5.63-3.12,7.52,7.52,0,0,0,.43,2.84h7.16a12.11,12.11,0,0,1-.56-4.61V63.05h-7v9.5c-1.31-1.88-3-2.62-5.56-2.62-4.33,0-7.16,3.54-7.16,10.07S140.61,89.57,144.9,89.57Z"/><path class="cls-10" d="M192.3,71a10.43,10.43,0,1,0,10.43,10.43A10.43,10.43,0,0,0,192.3,71"/><g class="cls-11"><path class="cls-9" d="M192.3,91.91c-3,0-5.5-4.71-5.5-10.49s2.46-10.48,5.5-10.48,5.5,4.7,5.5,10.48S195.34,91.91,192.3,91.91Zm0-20.86c-3,0-5.4,4.65-5.4,10.37s2.42,10.38,5.4,10.38,5.4-4.65,5.4-10.38S195.28,71.05,192.3,71.05Z"/><path class="cls-9" d="M202.78,87.44h-.1c0-1.26-4.66-2.29-10.38-2.29s-10.38,1-10.38,2.29h-.1c0-1.34,4.6-2.39,10.48-2.39S202.78,86.1,202.78,87.44Z"/><rect class="cls-9" x="181.04" y="81.37" width="22.52" height="0.11"/><path class="cls-9" d="M192.3,77.8c-5.88,0-10.48-1-10.48-2.39h.1c0,1.26,4.66,2.29,10.38,2.29s10.38-1,10.38-2.29h.1C202.78,76.75,198.18,77.8,192.3,77.8Z"/><path class="cls-9" d="M192.3,74.13c-5.78,0-10.48-1.93-10.48-4.29h.1c0,2.3,4.66,4.18,10.38,4.18s10.38-1.88,10.38-4.18h.1C202.78,72.2,198.08,74.13,192.3,74.13Z"/><rect class="cls-9" x="192.25" y="70.16" width="0.11" height="22.52"/><path class="cls-9" d="M192.3,88.72c5.78,0,10.48,1.93,10.48,4.29h-.1c0-2.31-4.66-4.18-10.38-4.18S181.92,90.7,181.92,93h-.1C181.82,90.65,186.52,88.72,192.3,88.72Z"/></g><path class="cls-9" d="M192.3,91.91a10.49,10.49,0,1,1,10.48-10.49A10.5,10.5,0,0,1,192.3,91.91Zm0-20.86a10.38,10.38,0,1,0,10.38,10.37A10.39,10.39,0,0,0,192.3,71.05Z"/><polygon class="cls-9" points="96.48 89.26 96.48 74.39 107.77 71.19 119.05 74.39 119.05 89.26 107.77 92.45 96.48 89.26"/><polygon class="cls-9" points="96.58 74.47 107.77 71.29 118.95 74.47 107.77 77.64 96.58 74.47"/><polygon class="cls-10" points="96.95 74.46 107.77 71.4 118.58 74.46 107.77 77.53 96.95 74.46"/><polygon class="cls-9" points="107.77 92.35 118.95 89.19 118.95 74.47 107.77 77.63 107.77 92.35"/><polygon class="cls-10" points="107.87 77.7 118.85 74.6 118.85 89.11 107.87 92.22 107.87 77.7"/><polygon class="cls-9" points="96.58 74.47 107.77 77.63 107.77 92.35 96.58 89.19 96.58 74.47"/><polygon class="cls-10" points="96.68 89.11 96.68 74.6 107.67 77.7 107.67 92.22 96.68 89.11"/></svg>