<svg width="24" height="18" viewBox="0 0 24 18" fill="none" xmlns="http://www.w3.org/2000/svg">
<path d="M5.75078 17.55C4.90078 17.55 4.16328 17.2708 3.53828 16.7125C2.91328 16.1542 2.58411 15.45 2.55078 14.6H0.425781V2.775C0.425781 2.125 0.654948 1.57084 1.11328 1.1125C1.57161 0.65417 2.12578 0.425003 2.77578 0.425003H17.2508V4.3H19.7008L23.5758 9.5V14.6H21.5008C21.4508 15.45 21.1133 16.1542 20.4883 16.7125C19.8633 17.2708 19.1258 17.55 18.2758 17.55C17.4258 17.55 16.6883 17.2708 16.0633 16.7125C15.4383 16.1542 15.1091 15.45 15.0758 14.6H8.95078C8.90078 15.4333 8.56745 16.1333 7.95078 16.7C7.33411 17.2667 6.60078 17.55 5.75078 17.55ZM5.75078 15.75C6.15078 15.75 6.49245 15.6083 6.77578 15.325C7.05911 15.0417 7.20078 14.7 7.20078 14.3C7.20078 13.9 7.05911 13.5583 6.77578 13.275C6.49245 12.9917 6.15078 12.85 5.75078 12.85C5.35078 12.85 5.00911 12.9917 4.72578 13.275C4.44245 13.5583 4.30078 13.9 4.30078 14.3C4.30078 14.7 4.44245 15.0417 4.72578 15.325C5.00911 15.6083 5.35078 15.75 5.75078 15.75ZM2.77578 12.25H3.42578C3.70911 11.8833 4.05078 11.5917 4.45078 11.375C4.85078 11.1583 5.27578 11.05 5.72578 11.05C6.17578 11.05 6.60495 11.1583 7.01328 11.375C7.42161 11.5917 7.75911 11.8833 8.02578 12.25H14.9008V2.775H2.77578V12.25ZM18.2758 15.75C18.6758 15.75 19.0174 15.6083 19.3008 15.325C19.5841 15.0417 19.7258 14.7 19.7258 14.3C19.7258 13.9 19.5841 13.5583 19.3008 13.275C19.0174 12.9917 18.6758 12.85 18.2758 12.85C17.8758 12.85 17.5341 12.9917 17.2508 13.275C16.9674 13.5583 16.8258 13.9 16.8258 14.3C16.8258 14.7 16.9674 15.0417 17.2508 15.325C17.5341 15.6083 17.8758 15.75 18.2758 15.75ZM17.2508 10.375H21.3008L18.5258 6.675H17.2508V10.375Z" fill="#606060"/>
</svg>
