<svg width="15" height="17" viewBox="0 0 15 17" fill="none" xmlns="http://www.w3.org/2000/svg">
<path opacity="0.8" d="M7.48472 8.241C6.36745 8.241 5.45573 7.85802 4.74955 7.09206C4.04339 6.32609 3.6903 5.33717 3.6903 4.1253C3.6903 2.91342 4.04339 1.9229 4.74955 1.15374C5.45573 0.38458 6.36745 0 7.48472 0C8.602 0 9.51881 0.38458 10.2352 1.15374C10.9515 1.9229 11.3097 2.91342 11.3097 4.1253C11.3097 5.33717 10.9515 6.32609 10.2352 7.09206C9.51881 7.85802 8.602 8.241 7.48472 8.241ZM0 17V14.1558C0 13.4572 0.165181 12.8472 0.495543 12.3258C0.825905 11.8044 1.25407 11.4082 1.78003 11.1371C2.77858 10.6505 3.74428 10.2855 4.67711 10.0422C5.60995 9.79894 6.54535 9.67729 7.48331 9.67729C8.44902 9.67729 9.39331 9.80286 10.3162 10.054C11.239 10.3052 12.1925 10.6662 13.1766 11.1371C13.7208 11.3876 14.1608 11.776 14.4965 12.3021C14.8322 12.8283 15 13.4442 15 14.1497V17H0Z" fill="white"/>
</svg>
