<svg width="20" height="20" viewBox="0 0 20 20" fill="none" xmlns="http://www.w3.org/2000/svg">
<path d="M2.725 15.975C3.725 15.1083 4.82083 14.4125 6.0125 13.8875C7.20417 13.3625 8.53333 13.1 10 13.1C11.4667 13.1 12.7958 13.3542 13.9875 13.8625C15.1792 14.3708 16.275 15.0583 17.275 15.925V2.725H2.725V15.975ZM10.05 11.85C11.0667 11.85 11.9208 11.5042 12.6125 10.8125C13.3042 10.1208 13.65 9.26667 13.65 8.25C13.65 7.23333 13.3042 6.38333 12.6125 5.7C11.9208 5.01666 11.0667 4.675 10.05 4.675C9.03333 4.675 8.17917 5.01666 7.4875 5.7C6.79583 6.38333 6.45 7.23333 6.45 8.25C6.45 9.26667 6.79583 10.1208 7.4875 10.8125C8.17917 11.5042 9.03333 11.85 10.05 11.85ZM2.725 19.625C2.075 19.625 1.52083 19.3958 1.0625 18.9375C0.604167 18.4792 0.375 17.925 0.375 17.275V2.725C0.375 2.075 0.604167 1.51667 1.0625 1.05C1.52083 0.583332 2.075 0.349998 2.725 0.349998H17.275C17.925 0.349998 18.4833 0.583332 18.95 1.05C19.4167 1.51667 19.65 2.075 19.65 2.725V17.275C19.65 17.925 19.4167 18.4792 18.95 18.9375C18.4833 19.3958 17.925 19.625 17.275 19.625H2.725ZM3.875 17.275H16.125V17.175C15.225 16.4083 14.2583 15.8375 13.225 15.4625C12.1917 15.0875 11.1167 14.9 10 14.9C8.88333 14.9 7.80833 15.0875 6.775 15.4625C5.74167 15.8375 4.775 16.4083 3.875 17.175V17.275ZM10.05 10.075C9.55 10.075 9.125 9.89583 8.775 9.5375C8.425 9.17916 8.25 8.75 8.25 8.25C8.25 7.73333 8.425 7.30416 8.775 6.9625C9.125 6.62083 9.55 6.45 10.05 6.45C10.5667 6.45 10.9958 6.625 11.3375 6.975C11.6792 7.325 11.85 7.75 11.85 8.25C11.85 8.75 11.675 9.17916 11.325 9.5375C10.975 9.89583 10.55 10.075 10.05 10.075Z" fill="#606060"/>
</svg>
