<svg width="22" height="17" viewBox="0 0 22 17" fill="none" xmlns="http://www.w3.org/2000/svg">
<path d="M1 14.7937V8.61719L5.70588 10.0878L11 8.61719V14.7937L5.70588 16.5584L1 14.7937Z" fill="#FCE84D" stroke="black" stroke-width="0.2"/>
<path d="M5.70703 9.94336V16.4139" stroke="black" stroke-width="0.2"/>
<path d="M1 8.47059L5.70588 7L11 8.47059L5.70588 9.94118L1 8.47059Z" fill="#FCE84D" stroke="black" stroke-width="0.2"/>
<path d="M20.582 0.943359V7.4139" stroke="black" stroke-width="0.2"/>
<path d="M11 14.7937V8.61719L15.7059 10.0878L21 8.61719V14.7937L15.7059 16.5584L11 14.7937Z" fill="#FCE84D" stroke="black" stroke-width="0.2"/>
<path d="M11 8.47059L15.7059 7L21 8.47059L15.7059 9.94118L11 8.47059Z" fill="#FCE84D" stroke="black" stroke-width="0.2"/>
<g clip-path="url(#clip0_5_38)">
<path d="M5.875 9.12569V2.94922L10.5809 4.41981L15.875 2.94922V9.12569L10.5809 10.8904L5.875 9.12569Z" fill="#FCE84D" stroke="black" stroke-width="0.2"/>
<path d="M10.582 4.27539V10.746" stroke="black" stroke-width="0.2"/>
<path d="M5.875 2.80262L10.5809 1.33203L15.875 2.80262L10.5809 4.27321L5.875 2.80262Z" fill="#FCE84D" stroke="black" stroke-width="0.2"/>
</g>
<defs>
<clipPath id="clip0_5_38">
<rect width="12" height="10" fill="white" transform="translate(5 1)"/>
</clipPath>
</defs>
</svg>
