<svg width="16" height="21" viewBox="0 0 16 21" fill="none" xmlns="http://www.w3.org/2000/svg">
<path opacity="0.8" d="M7.9996 21C5.6418 21 3.71909 20.6518 2.23145 19.9553C0.743818 19.2588 0 18.3529 0 17.2374C0 16.673 0.245302 16.1243 0.735905 15.5913C1.22651 15.0582 1.91494 14.6114 2.80119 14.2508L3.89318 16.2732C3.59248 16.3516 3.27992 16.477 2.95549 16.6495C2.63106 16.8219 2.37389 17.0101 2.18398 17.2139C2.52091 17.634 3.27379 17.9978 4.44261 18.305C5.61143 18.6123 6.80673 18.766 8.02849 18.766C9.25025 18.766 10.4414 18.6123 11.602 18.305C12.7625 17.9978 13.5164 17.634 13.8635 17.2139C13.6578 17.0258 13.3966 16.8455 13.0801 16.673C12.7636 16.5006 12.455 16.3673 12.1543 16.2732L13.2463 14.2744C14.1167 14.6349 14.7933 15.0817 15.276 15.6148C15.7587 16.1478 16 16.6887 16 17.2374C16 18.3529 15.256 19.2588 13.7681 19.9553C12.2802 20.6518 10.3574 21 7.9996 21ZM8 17.6842C7.72169 17.6842 7.47407 17.6058 7.25714 17.449C7.04021 17.2923 6.89219 17.0885 6.81306 16.8376C6.46489 15.7716 5.99407 14.8466 5.40059 14.0627L3.65579 11.7581C3.0566 11.0047 2.54677 10.2167 2.12629 9.39406C1.7058 8.57144 1.49555 7.60358 1.49555 6.49048C1.49555 4.6815 2.12086 3.14752 3.37149 1.88852C4.6221 0.629506 6.16513 0 8.00057 0C9.836 0 11.3828 0.629506 12.6409 1.88852C13.8991 3.14752 14.5282 4.6815 14.5282 6.49048C14.5282 7.60358 14.3106 8.57167 13.8754 9.39474C13.4402 10.2178 12.9377 11.0056 12.368 11.7581C11.7666 12.5106 11.1731 13.2788 10.5875 14.0627C10.002 14.8466 9.53511 15.7716 9.18694 16.8376C9.10781 17.0885 8.95979 17.2923 8.74286 17.449C8.52593 17.6058 8.27831 17.6842 8 17.6842ZM8.00593 7.94849C8.41345 7.94849 8.7636 7.80739 9.05638 7.5252C9.34916 7.243 9.49555 6.90006 9.49555 6.49636C9.49555 6.09267 9.34718 5.74384 9.05044 5.44989C8.75371 5.15594 8.40158 5.00896 7.99407 5.00896C7.58655 5.00896 7.2364 5.15594 6.94362 5.44989C6.65084 5.74384 6.50445 6.09267 6.50445 6.49636C6.50445 6.90006 6.65282 7.243 6.94955 7.5252C7.24629 7.80739 7.59842 7.94849 8.00593 7.94849Z" fill="white"/>
</svg>
