<svg width="20" height="20" viewBox="0 0 20 20" fill="none" xmlns="http://www.w3.org/2000/svg">
<path d="M7.775 19.65H1.5C1.1 19.65 0.75 19.5 0.45 19.2C0.15 18.9 0 18.55 0 18.15V3.59998C0 3.19998 0.129167 2.84998 0.3875 2.54998C0.645833 2.24998 0.866667 2.09998 1.05 2.09998H6.1C6.21667 1.51664 6.50417 1.03748 6.9625 0.662476C7.42083 0.287476 7.95 0.0999756 8.55 0.0999756C9.15 0.0999756 9.67917 0.287476 10.1375 0.662476C10.5958 1.03748 10.8833 1.51664 11 2.09998H16.05C16.45 2.09998 16.8 2.24998 17.1 2.54998C17.4 2.84998 17.55 3.19998 17.55 3.59998V8.67498H16.05V3.59998H13.4V6.84998H4.15V3.59998H1.5V18.15H7.775V19.65ZM12.5 19.025L8.5 15.025L9.575 13.95L12.5 16.875L18.475 10.9L19.55 11.975L12.5 19.025ZM9 3.49998C9.28333 3.49998 9.52083 3.40414 9.7125 3.21248C9.90417 3.02081 10 2.78331 10 2.49998C10 2.21664 9.90417 1.97914 9.7125 1.78748C9.52083 1.59581 9.28333 1.49998 9 1.49998C8.71667 1.49998 8.47917 1.59581 8.2875 1.78748C8.09583 1.97914 8 2.21664 8 2.49998C8 2.78331 8.09583 3.02081 8.2875 3.21248C8.47917 3.40414 8.71667 3.49998 9 3.49998Z" fill="#606060"/>
</svg>
