<svg width="12" height="16" viewBox="0 0 12 16" fill="none" xmlns="http://www.w3.org/2000/svg">
<path d="M6.11857 11.245C3.08657 11.245 0.576172 8.78096 0.576172 5.70256C0.576172 2.67056 3.04017 0.160156 6.11857 0.160156C9.15057 0.160156 11.661 2.62416 11.661 5.70256C11.661 8.73456 9.15057 11.245 6.11857 11.245ZM6.11857 1.10736C3.60817 1.10736 1.52337 3.14416 1.52337 5.70256C1.52337 8.26096 3.56017 10.2978 6.11857 10.2978C8.62897 10.2978 10.7138 8.26096 10.7138 5.70256C10.7138 3.14576 8.62897 1.10736 6.11857 1.10736Z" fill="#606060"/>
<path d="M6.11826 8.92305C4.36626 8.92305 2.89746 7.50225 2.89746 5.70225C2.89746 3.95025 4.31826 2.48145 6.11826 2.48145C7.87026 2.48145 9.33906 3.90225 9.33906 5.70225C9.33906 7.50385 7.87026 8.92305 6.11826 8.92305ZM6.11826 3.42865C4.88626 3.42865 3.84466 4.47025 3.84466 5.70225C3.84466 6.93425 4.88626 7.97585 6.11826 7.97585C7.35026 7.97585 8.39186 6.93425 8.39186 5.70225C8.39186 4.47185 7.35026 3.42865 6.11826 3.42865Z" fill="#606060"/>
<path d="M4.12942 15.7917L2.66062 13.8973L0.291016 14.1821L2.37582 9.30371L6.16461 10.9597L4.12942 15.7917ZM3.13422 12.8557L3.93902 13.8973L5.02861 11.3869L2.94382 10.4861L1.85422 12.9501L3.13422 12.8557Z" fill="#606060"/>
<path d="M8.06101 15.8404L5.69141 11.0564L9.38741 9.20996L11.709 13.9476L9.24501 13.7572L8.06101 15.8404ZM7.01941 11.53L8.20341 13.946L8.86581 12.8564L10.2402 12.9508L9.05621 10.5348L7.01941 11.53Z" fill="#606060"/>
</svg>
