<svg width="22" height="10" viewBox="0 0 22 10" fill="none" xmlns="http://www.w3.org/2000/svg">
<ellipse cx="0.0664116" cy="0.326958" rx="0.0664116" ry="0.326958" transform="matrix(-1 0 0 1 14.8789 7.66016)" fill="#D9D9D9"/>
<rect width="4.91689" height="4.14975" transform="matrix(-1 0 0 1 10.8164 2.46875)" fill="#EDB075"/>
<rect width="0.593862" height="1.12583" transform="matrix(-4.14336e-08 1 1 4.61143e-08 7.86719 2.46875)" fill="#434645"/>
<path d="M14.5658 0H18.8826L21.6055 4.32052V7.16972H14.5658V0Z" fill="#0065C0"/>
<path d="M15.9592 0.769531H18.7043L20.8516 4.27265H15.9592V0.769531Z" fill="#F9F9FB"/>
<path opacity="0.1" d="M15.9592 0.769531L18.2394 1.18991L20.8516 4.27265H15.9592V0.769531Z" fill="#0065C0"/>
<rect width="21.6059" height="2.12009" transform="matrix(-1 0 0 1 21.6055 6.33789)" fill="#606060"/>
<ellipse cx="1.81525" cy="1.91504" rx="1.81525" ry="1.91504" transform="matrix(-1 0 0 1 18.4805 6.16992)" fill="#434645"/>
<ellipse cx="0.841213" cy="0.887457" rx="0.841213" ry="0.887457" transform="matrix(-1 0 0 1 17.5039 7.04688)" fill="#D9D9D9"/>
<ellipse cx="1.81525" cy="1.91504" rx="1.81525" ry="1.91504" transform="matrix(-1 0 0 1 5.18359 6.16992)" fill="#434645"/>
<ellipse cx="0.841213" cy="0.887457" rx="0.841213" ry="0.887457" transform="matrix(-1 0 0 1 4.21094 7.04688)" fill="#D9D9D9"/>
<rect width="2.47937" height="0.467083" rx="0.233541" transform="matrix(-1 0 0 1 18.418 4.57812)" fill="#F9F9FB"/>
</svg>
