<svg width="16" height="16" viewBox="0 0 16 16" fill="none" xmlns="http://www.w3.org/2000/svg">
<path d="M2 15.6374H14C14.5304 15.6374 15.0391 15.4315 15.4142 15.0649C15.7893 14.6983 16 14.2011 16 13.6827V2.93201C16 2.4136 15.7893 1.91642 15.4142 1.54985C15.0391 1.18328 14.5304 0.977337 14 0.977337H13V0.488669C13 0.359066 12.9473 0.234771 12.8536 0.143128C12.7598 0.0514846 12.6326 0 12.5 0C12.3674 0 12.2402 0.0514846 12.1464 0.143128C12.0527 0.234771 12 0.359066 12 0.488669V0.977337H4V0.488669C4 0.359066 3.94732 0.234771 3.85355 0.143128C3.75979 0.0514846 3.63261 0 3.5 0C3.36739 0 3.24021 0.0514846 3.14645 0.143128C3.05268 0.234771 3 0.359066 3 0.488669V0.977337H2C1.46957 0.977337 0.960858 1.18328 0.585786 1.54985C0.210713 1.91642 0 2.4136 0 2.93201V13.6827C0 14.2011 0.210713 14.6983 0.585786 15.0649C0.960858 15.4315 1.46957 15.6374 2 15.6374ZM15 3.90935V13.6827C15 13.9419 14.8946 14.1905 14.7071 14.3738C14.5196 14.5571 14.2652 14.6601 14 14.6601H2C1.73478 14.6601 1.48043 14.5571 1.29289 14.3738C1.10536 14.1905 1 13.9419 1 13.6827V3.90935H15Z" fill="#9F9F9F"/>
</svg>
