<svg width="45" height="23" viewBox="0 0 45 23" fill="none" xmlns="http://www.w3.org/2000/svg">
<path d="M0 5.29413H1.76471V14.1177H0V5.29413Z" fill="#606060"/>
<ellipse rx="0.141032" ry="0.658149" transform="matrix(-1 0 0 1 29.6851 17.7762)" fill="#D9D9D9"/>
<rect width="8.36789" height="7.17248" transform="matrix(-1 0 0 1 20.7217 6.60318)" fill="#EDB075"/>
<rect width="1.19541" height="2.39083" transform="matrix(1 8.74228e-08 8.74228e-08 -1 15.9395 8.99405)" fill="#434645"/>
<path d="M29.1688 1.69864H38.3359L44.1182 10.3956V16.1309H29.1688V1.69864Z" fill="#0065C0"/>
<path d="M32.1312 3.24994H37.9605L42.5205 10.3015H32.1312V3.24994Z" fill="#F9F9FB"/>
<path opacity="0.1" d="M32.1312 3.24994L36.9733 4.09613L42.5205 10.3015H32.1312V3.24994Z" fill="#0065C0"/>
<rect width="44.1176" height="5.29412" transform="matrix(-1 0 0 1 44.1182 14.1176)" fill="#606060"/>
<circle r="3.85487" transform="matrix(-1 0 0 1 33.6285 18.3135)" fill="#434645"/>
<circle r="1.7864" transform="matrix(-1 0 0 1 33.6267 18.3135)" fill="#D9D9D9"/>
<circle r="3.85487" transform="matrix(-1 0 0 1 5.38048 17.7763)" fill="#434645"/>
<circle r="1.7864" transform="matrix(-1 0 0 1 5.38157 17.7762)" fill="#D9D9D9"/>
<rect width="5.26519" height="0.940212" rx="0.470106" transform="matrix(-1 0 0 1 37.3486 10.9127)" fill="#F9F9FB"/>
<rect width="2.39083" height="1.19541" rx="0.597706" transform="matrix(-1 0 0 1 43.6621 12.0678)" fill="#FCE74E"/>
<rect x="14.1182" width="1.76471" height="3.52941" fill="#434645"/>
<path d="M15.0004 5.29413L12.708 2.64707L17.2928 2.64707L15.0004 5.29413Z" fill="#434645"/>
</svg>
