<svg width="31" height="30" viewBox="0 0 31 30" fill="none" xmlns="http://www.w3.org/2000/svg">
<g clip-path="url(#clip0_1_13)">
<path d="M26.5 0.5H4.5C2.567 0.5 1 2.067 1 4V26C1 27.933 2.567 29.5 4.5 29.5H26.5C28.433 29.5 30 27.933 30 26V4C30 2.067 28.433 0.5 26.5 0.5Z" stroke="#0065C0"/>
<g clip-path="url(#clip1_1_13)">
<path d="M13.5066 21.7695C12.2585 21.4335 11.1326 20.7473 10.2621 19.7918C9.39155 18.8364 8.81276 17.6517 8.59411 16.3777H9.73711C9.94967 17.4182 10.4524 18.3773 11.1872 19.144C11.9221 19.9107 12.8589 20.4538 13.8894 20.7103C14.9199 20.9669 16.002 20.9264 17.0105 20.5937C18.0191 20.261 18.9128 19.6496 19.5884 18.8302C19.6408 18.7619 19.7082 18.7066 19.7855 18.6686C19.8628 18.6306 19.9478 18.611 20.0339 18.6112C20.063 18.6111 20.0921 18.6134 20.1209 18.618C20.2206 18.6334 20.3143 18.6754 20.3922 18.7396C20.47 18.8037 20.5292 18.8877 20.5634 18.9826C20.5976 19.0775 20.6057 19.1799 20.5867 19.279C20.5676 19.3781 20.5223 19.4702 20.4554 19.5457C19.6319 20.5432 18.5392 21.2831 17.3073 21.6773C16.0754 22.0716 14.7562 22.1035 13.5066 21.7695ZM21.2211 17.2425L19.0094 14.5867C18.9752 14.5457 18.9534 14.4957 18.9465 14.4427C18.9397 14.3897 18.9481 14.3359 18.9708 14.2875C18.9934 14.2391 19.0294 14.1981 19.0745 14.1694C19.1196 14.1407 19.1719 14.1255 19.2254 14.1255H20.7614C20.5491 13.0848 20.0466 12.1255 19.3119 11.3585C18.5773 10.5915 17.6404 10.0482 16.6099 9.79141C15.5793 9.53461 14.4971 9.57483 13.4884 9.90741C12.4797 10.24 11.5858 10.8513 10.9101 11.6707C10.8576 11.7388 10.7902 11.7939 10.7131 11.832C10.6361 11.8701 10.5513 11.8901 10.4654 11.8905C10.4362 11.8906 10.4071 11.8883 10.3784 11.8837C10.2786 11.8682 10.185 11.8261 10.1071 11.7619C10.0292 11.6977 9.96999 11.6138 9.93565 11.5189C9.90131 11.424 9.8931 11.3216 9.91187 11.2225C9.93064 11.1233 9.97571 11.031 10.0424 10.9552C10.8657 9.95689 11.9587 9.21627 13.1911 8.8216C14.4236 8.42692 15.7435 8.39482 16.9936 8.72913C18.2437 9.06344 19.3714 9.75007 20.2424 10.7072C21.1133 11.6644 21.6907 12.8517 21.9059 14.1277H23.6489C23.7023 14.1278 23.7546 14.143 23.7997 14.1717C23.8448 14.2004 23.8808 14.2413 23.9035 14.2897C23.9261 14.3381 23.9345 14.392 23.9277 14.445C23.9209 14.498 23.8991 14.5479 23.8649 14.589L21.6539 17.2447C21.6275 17.2764 21.5944 17.3019 21.5571 17.3193C21.5198 17.3368 21.4791 17.3459 21.4379 17.3459C21.3967 17.3459 21.3559 17.3368 21.3186 17.3193C21.2813 17.3019 21.2483 17.2764 21.2219 17.2447L21.2211 17.2425ZM6.85036 16.3777C6.79679 16.378 6.74426 16.363 6.69897 16.3343C6.65369 16.3057 6.61755 16.2647 6.59483 16.2162C6.57211 16.1677 6.56376 16.1137 6.57077 16.0606C6.57777 16.0075 6.59984 15.9575 6.63436 15.9165L8.84536 13.2615C8.87176 13.2298 8.90479 13.2044 8.94211 13.1869C8.97944 13.1694 9.02015 13.1604 9.06136 13.1604C9.10258 13.1604 9.14329 13.1694 9.18061 13.1869C9.21794 13.2044 9.25097 13.2298 9.27736 13.2615L11.4891 15.9165C11.5233 15.9576 11.5451 16.0075 11.5519 16.0605C11.5588 16.1135 11.5504 16.1674 11.5277 16.2158C11.505 16.2642 11.4691 16.3051 11.424 16.3338C11.3789 16.3625 11.3266 16.3777 11.2731 16.3777H6.85036Z" fill="#404040"/>
</g>
</g>
<defs>
<clipPath id="clip0_1_13">
<rect width="31" height="30" fill="white"/>
</clipPath>
<clipPath id="clip1_1_13">
<rect width="18" height="14" fill="white" transform="translate(6 8)"/>
</clipPath>
</defs>
</svg>
