<svg width="124" height="114" viewBox="0 0 124 114" fill="none" xmlns="http://www.w3.org/2000/svg">
<rect opacity="0.4" x="20" y="30" width="74" height="74" rx="37" fill="#00C000" fill-opacity="0.1"/>
<path opacity="0.3" d="M112.875 77L115.875 84.5L122.625 88.25L115.837 91.9623L112.875 98.75L109.875 92L102.375 88.25L109.875 84.5L112.875 77Z" fill="#00C000"/>
<path opacity="0.32" d="M15.5 0L19.7759 10.6897L29.3966 16.0345L19.7221 21.3256L15.5 31L11.2241 21.3793L0.534483 16.0345L11.2241 10.6897L15.5 0Z" fill="#00C000"/>
<path opacity="0.2" d="M8.25 99L10.25 104L14.75 106.5L10.2249 108.975L8.25 113.5L6.25 109L1.25 106.5L6.25 104L8.25 99Z" fill="#00C000"/>
<path opacity="0.3" d="M56.5 46L74.2535 55.5V74.5L56.5 84L38.7465 74.5V55.5L56.5 46Z" fill="#0471D0"/>
<path d="M51.5214 68.004C51.5214 68.704 51.0594 69.068 50.2614 69.068H48.4974V66.898H50.2334C51.0314 66.898 51.5214 67.304 51.5214 68.004ZM51.2834 64.126C51.2834 64.798 50.8494 65.148 50.0654 65.148H48.4974V63.09H50.0654C50.8494 63.09 51.2834 63.454 51.2834 64.126ZM53.9434 68.326C53.9434 67.206 53.2014 66.198 52.0534 65.96C53.0054 65.68 53.7194 64.91 53.7194 63.72C53.7194 62.166 52.5294 61.172 50.5274 61.172H46.1034V71H50.6814C52.7534 71 53.9434 69.95 53.9434 68.326ZM55.3319 71H57.7259V61.172H55.3319V71ZM63.1428 61.172H59.4608V71H63.1428C66.2788 71 68.2948 68.998 68.2948 66.086C68.2948 63.16 66.2788 61.172 63.1428 61.172ZM61.8548 68.928V63.216H62.9888C64.7948 63.216 65.8588 64.28 65.8588 66.086C65.8588 67.892 64.7948 68.928 62.9888 68.928H61.8548Z" fill="#404040"/>
<rect x="54" y="83" width="4" height="21" fill="white"/>
</svg>
