<svg width="21" height="20" viewBox="0 0 21 20" fill="none" xmlns="http://www.w3.org/2000/svg">
<path d="M0.875 20C0.875 18.2167 1.13333 16.675 1.65 15.375C2.16667 14.075 2.825 12.9958 3.625 12.1375C4.425 11.2792 5.3125 10.6125 6.2875 10.1375C7.2625 9.6625 8.20833 9.35833 9.125 9.225V5.75C6.84167 5.46667 4.89583 4.80417 3.2875 3.7625C1.67917 2.72083 0.875 1.46667 0.875 0L10.875 1L20.875 0C20.875 1.46667 20.0708 2.72083 18.4625 3.7625C16.8542 4.80417 14.9083 5.46667 12.625 5.75V9.225C13.5417 9.35833 14.4875 9.6625 15.4625 10.1375C16.4375 10.6125 17.325 11.2792 18.125 12.1375C18.925 12.9958 19.5833 14.075 20.1 15.375C20.6167 16.675 20.875 18.2167 20.875 20H14.875V18.5H19.3C19 15.9667 18.075 14.0125 16.525 12.6375C14.975 11.2625 13.0917 10.575 10.875 10.575C8.65833 10.575 6.775 11.2625 5.225 12.6375C3.675 14.0125 2.75 15.9667 2.45 18.5H6.875V20H0.875ZM10.875 20C10.325 20 9.85417 19.8042 9.4625 19.4125C9.07083 19.0208 8.875 18.55 8.875 18C8.875 17.7167 8.92917 17.4583 9.0375 17.225C9.14583 16.9917 9.29167 16.7833 9.475 16.6C9.875 16.2 10.5625 15.7833 11.5375 15.35C12.5125 14.9167 13.625 14.4667 14.875 14C14.3917 15.25 13.9375 16.3625 13.5125 17.3375C13.0875 18.3125 12.675 19 12.275 19.4C12.0917 19.5833 11.8833 19.7292 11.65 19.8375C11.4167 19.9458 11.1583 20 10.875 20Z" fill="#FCE74E"/>
</svg>
