<svg width="157" height="135" viewBox="0 0 157 135" fill="none" xmlns="http://www.w3.org/2000/svg">
<path opacity="0.32" d="M15.5 0L19.7759 10.6897L29.3966 16.0345L19.7221 21.3256L15.5 31L11.2241 21.3793L0.534483 16.0345L11.2241 10.6897L15.5 0Z" fill="#00C000"/>
<rect opacity="0.1" x="36" y="23" width="74" height="74" rx="37" fill="#00C000"/>
<path opacity="0.3" d="M145.875 70L148.875 77.5L155.625 81.25L148.837 84.9623L145.875 91.75L142.875 85L135.375 81.25L142.875 77.5L145.875 70Z" fill="#00C000"/>
<path opacity="0.2" d="M38.25 105L40.25 110L44.75 112.5L40.2249 114.975L38.25 119.5L36.25 115L31.25 112.5L36.25 110L38.25 105Z" fill="#00C000"/>
<path opacity="0.1" d="M117.25 120L119.25 125L123.75 127.5L119.225 129.975L117.25 134.5L115.25 130L110.25 127.5L115.25 125L117.25 120Z" fill="#00C000"/>
</svg>
