<svg width="22" height="19" viewBox="0 0 22 19" fill="none" xmlns="http://www.w3.org/2000/svg">
<path d="M5.875 8.79366V2.61719L10.5809 4.08778L15.875 2.61719V8.79366L10.5809 10.5584L5.875 8.79366Z" fill="#FCE84D" stroke="black" stroke-width="0.2"/>
<path d="M10.582 3.94336V10.4139" stroke="black" stroke-width="0.2"/>
<path d="M5.875 2.47059L10.5809 1L15.875 2.47059L10.5809 3.94118L5.875 2.47059Z" fill="#FCE84D" stroke="black" stroke-width="0.2"/>
<path d="M10.875 17.1257V10.9492L15.5809 12.4198L20.875 10.9492V17.1257L15.5809 18.8904L10.875 17.1257Z" fill="#FCE84D" stroke="black" stroke-width="0.2"/>
<path d="M15.582 12.2754V18.746" stroke="black" stroke-width="0.2"/>
<path d="M10.875 10.8026L15.5809 9.33203L20.875 10.8026L15.5809 12.2732L10.875 10.8026Z" fill="#FCE84D" stroke="black" stroke-width="0.2"/>
<path d="M0.875 17.1257V10.9492L5.58088 12.4198L10.875 10.9492V17.1257L5.58088 18.8904L0.875 17.1257Z" fill="#FCE84D" stroke="black" stroke-width="0.2"/>
<path d="M5.58203 12.2754V18.746" stroke="black" stroke-width="0.2"/>
<path d="M0.875 10.8026L5.58088 9.33203L10.875 10.8026L5.58088 12.2732L0.875 10.8026Z" fill="#FCE84D" stroke="black" stroke-width="0.2"/>
</svg>
